<?xml version="1.0" encoding="UTF-8"?>
<svg version="1.1" xmlns="http://www.w3.org/2000/svg" width="256" height="256">
<path d="M0 0 C1.87975525 -0.01073296 1.87975525 -0.01073296 3.79748535 -0.02168274 C5.18386816 -0.02452283 6.57025124 -0.02723458 7.95663452 -0.02983093 C9.4188147 -0.03609854 10.8809933 -0.0427456 12.34317017 -0.04974365 C17.14318743 -0.0707551 21.9432049 -0.08114486 26.74325562 -0.09111023 C28.39854321 -0.09515919 30.05383063 -0.09927616 31.70911789 -0.10346031 C39.48856887 -0.12250737 47.26801041 -0.13673814 55.04748023 -0.14507228 C64.01267201 -0.1548364 72.97761636 -0.18113629 81.94272101 -0.22157317 C88.88133149 -0.25178997 95.81987127 -0.26654651 102.75854623 -0.26985329 C106.898231 -0.27219787 111.03765128 -0.28108041 115.17726517 -0.30631447 C119.07616274 -0.32969727 122.97462362 -0.33378785 126.8735733 -0.32355309 C128.29811689 -0.32306005 129.72268272 -0.32931159 131.14715958 -0.34310913 C142.14176163 -0.44357375 151.16685484 0.85714562 159.42684937 8.57295227 C166.66381613 16.35027922 168.04785385 24.68098552 168.02540588 34.95207214 C168.02767144 35.71926201 168.029937 36.48645188 168.03227121 37.27688992 C168.03858173 39.83766967 168.03778374 42.39839609 168.03695679 44.95918274 C168.0399501 46.7992815 168.04335303 48.63937962 168.0471344 50.47947693 C168.05596061 55.47123848 168.05831192 60.46298289 168.05895019 65.45475149 C168.05966142 68.574884 168.06179711 71.69501216 168.0644474 74.81514359 C168.07369591 85.70430528 168.07778286 96.59345474 168.07699585 107.48262024 C168.07639503 117.62661735 168.08694901 127.77056129 168.10273951 137.91454494 C168.11582169 146.62979567 168.12117947 155.34502903 168.12054044 164.0602895 C168.12028567 169.26284157 168.1231252 174.46534637 168.13371849 179.66788864 C168.14341097 184.56148828 168.14347074 189.45499555 168.13620186 194.34859848 C168.13515749 196.14163345 168.13751015 197.93467422 168.14356232 199.72769928 C168.15130607 202.18134162 168.14662181 204.63466686 168.13893127 207.08830261 C168.14407484 207.79240544 168.1492184 208.49650827 168.15451783 209.22194755 C168.08779666 218.90059616 165.1433851 227.21120081 158.70419312 234.47138977 C152.59066867 240.12376475 145.94053301 242.26234555 137.78338623 242.29434204 C135.90363098 242.305075 135.90363098 242.305075 133.98590088 242.31602478 C132.59951807 242.31886487 131.21313499 242.32157662 129.82675171 242.32417297 C128.36457153 242.33044058 126.90239293 242.33708764 125.44021606 242.34408569 C120.6401988 242.36509714 115.84018133 242.3754869 111.04013062 242.38545227 C109.38484302 242.38950123 107.7295556 242.3936182 106.07426834 242.39780235 C98.29481736 242.41684941 90.51537582 242.43108018 82.735906 242.43941432 C73.77071422 242.44917844 64.80576987 242.47547833 55.84066522 242.51591522 C48.90205474 242.54613201 41.96351496 242.56088855 35.02484 242.56419533 C30.88515523 242.56653991 26.74573495 242.57542245 22.60612106 242.60065651 C18.70722349 242.62403931 14.80876261 242.62812989 10.90981293 242.61789513 C9.48526934 242.61740209 8.06070351 242.62365363 6.63622665 242.63745117 C-4.3583754 242.73791579 -13.38346861 241.43719642 -21.64346313 233.72138977 C-28.8804299 225.94406282 -30.26446762 217.61335652 -30.24201965 207.3422699 C-30.24428521 206.57508003 -30.24655077 205.80789016 -30.24888498 205.01745212 C-30.2551955 202.45667237 -30.25439751 199.89594595 -30.25357056 197.3351593 C-30.25656387 195.49506055 -30.25996679 193.65496242 -30.26374817 191.81486511 C-30.27257438 186.82310356 -30.27492569 181.83135915 -30.27556396 176.83959055 C-30.27627518 173.71945804 -30.27841088 170.59932988 -30.28106117 167.47919846 C-30.29030968 156.59003676 -30.29439663 145.7008873 -30.29360962 134.8117218 C-30.2930088 124.66772469 -30.30356278 114.52378075 -30.31935328 104.3797971 C-30.33243546 95.66454637 -30.33779324 86.94931301 -30.33715421 78.23405254 C-30.33689944 73.03150047 -30.33973897 67.82899567 -30.35033226 62.6264534 C-30.36002474 57.73285376 -30.36008451 52.83934649 -30.35281563 47.94574356 C-30.35177125 46.15270859 -30.35412392 44.35966783 -30.36017609 42.56664276 C-30.36791984 40.11300042 -30.36323558 37.65967519 -30.35554504 35.20603943 C-30.36068861 34.5019366 -30.36583217 33.79783377 -30.3711316 33.07239449 C-30.30441043 23.39374588 -27.35999887 15.08314123 -20.92080688 7.82295227 C-14.80728244 2.17057729 -8.15714678 0.03199649 0 0 Z M-11.45156097 21.83653259 C-13.39218937 25.71444706 -13.66837264 28.8787608 -13.61624146 33.11738586 C-13.62248142 33.90232107 -13.62872138 34.68725628 -13.63515043 35.4959774 C-13.65106086 38.11699651 -13.63848422 40.73708309 -13.62588501 43.35810852 C-13.63130701 45.24086549 -13.6384301 47.12361822 -13.64712524 49.00636292 C-13.66535226 54.11379153 -13.65829357 59.22089676 -13.6456089 64.32833099 C-13.63547807 69.67469145 -13.64487482 75.02102432 -13.65115356 80.36738586 C-13.65842971 89.34546375 -13.64884308 98.32341 -13.62979126 107.3014679 C-13.60802263 117.67962125 -13.61507402 128.05746027 -13.63709688 138.435606 C-13.65525176 147.34787625 -13.65780875 156.2600519 -13.64734221 165.17233467 C-13.64110778 170.49446388 -13.64027031 175.81644536 -13.65348816 181.13856506 C-13.66504726 186.14226233 -13.65701968 191.14555454 -13.63391113 196.14920807 C-13.62862438 197.9850014 -13.63013724 199.82082885 -13.63896179 201.65660858 C-13.6499024 204.1638505 -13.6361725 206.6697967 -13.61624146 209.17695618 C-13.62516434 209.90244848 -13.63408723 210.62794079 -13.64328051 211.37541771 C-13.56548301 216.42512299 -12.41890082 219.34758985 -9.10830688 223.14717102 C-4.99081531 225.80694704 -1.81891115 226.52288116 3.03964233 226.52812195 C4.85646515 226.54081116 4.85646515 226.54081116 6.70999146 226.55375671 C8.02549988 226.54768402 9.3410083 226.54161133 10.69638062 226.53535461 C12.10623582 226.53942304 13.51608783 226.54476644 14.92593384 226.55128479 C18.74412136 226.56493214 22.56206501 226.55967051 26.38025665 226.55014753 C30.38130843 226.54253751 34.38233971 226.54960027 38.38339233 226.55430603 C45.10169208 226.55975968 51.81989279 226.55258225 58.53817749 226.5382843 C66.29878869 226.5219585 74.05916343 226.52724728 81.81976891 226.54376352 C88.49001269 226.55738955 95.1601854 226.5592926 101.83043861 226.55144751 C105.81116231 226.54677712 109.79177495 226.54612864 113.77249146 226.55605698 C117.51543972 226.56474067 121.25808393 226.55867939 125.00099945 226.54137421 C127.02512701 226.53553318 129.04928036 226.54441293 131.07339478 226.55375671 C132.28460999 226.54529724 133.4958252 226.53683777 134.7437439 226.52812195 C135.79232574 226.52699087 136.84090759 226.52585979 137.92126465 226.52469444 C142.94121793 225.88668886 145.91230066 224.27122344 149.2349472 220.45780945 C151.1755756 216.57989498 151.45175887 213.41558125 151.39962769 209.17695618 C151.40586765 208.39202097 151.41210761 207.60708576 151.41853666 206.79836464 C151.43444709 204.17734553 151.42187045 201.55725895 151.40927124 198.93623352 C151.41469324 197.05347655 151.42181633 195.17072382 151.43051147 193.28797913 C151.44873849 188.18055051 151.4416798 183.07344528 151.42899513 177.96601105 C151.4188643 172.61965059 151.42826105 167.27331773 151.43453979 161.92695618 C151.44181594 152.94887829 151.43222931 143.97093204 151.41317749 134.99287415 C151.39140886 124.61472079 151.39846025 114.23688177 151.42048311 103.85873604 C151.43863799 94.94646579 151.44119498 86.03429014 151.43072844 77.12200737 C151.42449401 71.79987816 151.42365654 66.47789668 151.43687439 61.15577698 C151.44843349 56.15207971 151.44040591 51.14878751 151.41729736 46.14513397 C151.41201061 44.30934064 151.41352347 42.47351319 151.42234802 40.63773346 C151.43328863 38.13049154 151.41955873 35.62454535 151.39962769 33.11738586 C151.40855057 32.39189356 151.41747346 31.66640125 151.42666674 30.91892433 C151.34886924 25.86921905 150.20228705 22.94675219 146.89169312 19.14717102 C142.77420154 16.487395 139.60229738 15.77146088 134.7437439 15.76622009 C132.92692108 15.75353088 132.92692108 15.75353088 131.07339478 15.74058533 C129.75788635 15.74665802 128.44237793 15.75273071 127.08700562 15.75898743 C125.67715041 15.754919 124.2672984 15.7495756 122.85745239 15.74305725 C119.03926487 15.7294099 115.22132122 15.73467153 111.40312958 15.74419451 C107.4020778 15.75180453 103.40104652 15.74474177 99.3999939 15.74003601 C92.68169415 15.73458236 85.96349344 15.74175979 79.24520874 15.75605774 C71.48459754 15.77238354 63.7242228 15.76709476 55.96361732 15.75057852 C49.29337354 15.73695249 42.62320083 15.73504944 35.95294762 15.74289453 C31.97222392 15.74756492 27.99161128 15.7482134 24.01089478 15.73828506 C20.26794651 15.72960137 16.5253023 15.73566265 12.78238678 15.75296783 C10.75825922 15.75880886 8.73410587 15.74992911 6.70999146 15.74058533 C4.89316864 15.75327454 4.89316864 15.75327454 3.03964233 15.76622009 C1.99106049 15.76735117 0.94247864 15.76848225 -0.13787842 15.7696476 C-5.1578317 16.40765318 -8.12891443 18.0231186 -11.45156097 21.83653259 Z " fill="#000000" transform="translate(59.108306884765625,6.8528289794921875)"/>
<path d="M0 0 C5.76949496 4.434197 10.78434676 11.4915369 12.0390625 18.75 C13.0811676 28.98637417 11.42082388 36.00463777 6.0390625 44.75 C7.19921875 45.56791016 7.19921875 45.56791016 8.3828125 46.40234375 C20.85345585 55.43121301 31.00524354 65.97414142 34.0390625 81.75 C34.51204732 84.7378797 34.44043421 86.63936921 34.0390625 89.75 C30.82682548 93.27639447 28.62057063 95.00311913 23.82727051 95.38491821 C22.19044657 95.41442592 20.5529863 95.41672894 18.91601562 95.39697266 C17.56853493 95.41011505 17.56853493 95.41011505 16.1938324 95.42352295 C13.23549564 95.44546216 10.27866346 95.43098361 7.3203125 95.4140625 C5.2581758 95.41743221 3.19604104 95.42228611 1.13391113 95.42855835 C-3.18354236 95.43592227 -7.5004779 95.42523939 -11.81787109 95.40185547 C-17.34631326 95.37336831 -22.87354173 95.38977481 -28.40193939 95.41971779 C-32.65884512 95.43780356 -36.91546408 95.43202679 -41.17237854 95.41907883 C-43.21049646 95.41574837 -45.2486406 95.41981919 -47.28672791 95.43147659 C-50.13781484 95.44420616 -52.98694881 95.42477877 -55.83789062 95.39697266 C-57.09582176 95.41215439 -57.09582176 95.41215439 -58.37916565 95.42764282 C-62.54638815 95.35251857 -65.17968327 94.99213808 -68.48352051 92.33456421 C-70.9609375 89.75 -70.9609375 89.75 -71.72265625 87.75 C-71.28729256 76.01809418 -65.71626267 65.35112406 -57.9609375 56.75 C-54.42878836 53.55674625 -50.73866665 50.64371509 -46.9609375 47.75 C-44.7373307 45.8245356 -44.7373307 45.8245356 -43.9609375 42.75 C-44.67694656 40.74935517 -44.67694656 40.74935517 -45.8359375 38.75 C-49.73495377 31.55181611 -50.2061101 23.90857222 -48.27734375 15.91796875 C-44.60259468 5.99157187 -38.37456446 0.37914329 -28.9609375 -4.25 C-19.12194021 -7.54966372 -8.53954922 -5.44353735 0 0 Z M-30.7734375 17.8125 C-33.20564486 21.78083832 -33.34122709 25.18652488 -32.9609375 29.75 C-30.76957674 35.1370952 -28.48066351 37.84000663 -23.109375 40.15625 C-18.03383122 41.55894573 -14.23896241 40.40106929 -9.6484375 38.0625 C-5.57136385 34.55432035 -4.15702909 31.58018814 -3.5859375 26.25 C-4.14488704 21.03313767 -5.62301015 17.95739786 -9.5234375 14.4375 C-17.06117826 9.21906409 -24.80617781 11.02217 -30.7734375 17.8125 Z M-47.41796875 69.80859375 C-49.4717328 72.25558813 -49.4717328 72.25558813 -51.9609375 77.75 C-29.8509375 77.75 -7.7409375 77.75 15.0390625 77.75 C9.14309451 67.43205601 3.34988193 61.68934369 -7.9609375 57.75 C-23.30929923 53.99658444 -36.47414134 59.02073537 -47.41796875 69.80859375 Z " fill="#000000" transform="translate(144.9609375,49.25)"/>
<path d="M0 0 C1.22164856 -0.00700928 2.44329712 -0.01401855 3.70196533 -0.02124023 C7.04522287 -0.03581466 10.38748836 -0.03241962 13.73069 -0.01972389 C17.23307099 -0.00958021 20.73541027 -0.01899335 24.23779297 -0.02526855 C30.11889231 -0.03254102 35.99979058 -0.02296796 41.88085938 -0.00390625 C48.67532147 0.01786196 55.46930343 0.01081029 62.26375389 -0.01121187 C68.10256745 -0.02937747 73.94123666 -0.0319186 79.78006935 -0.0214572 C83.26506035 -0.01522855 86.74982583 -0.01436904 90.23480225 -0.02760315 C94.12026562 -0.04132807 98.00519335 -0.02229288 101.890625 0 C103.04298645 -0.00809692 104.1953479 -0.01619385 105.38262939 -0.02453613 C113.1714697 0.05835694 113.1714697 0.05835694 117.15942383 2.42492676 C119.64091385 5.33266315 119.61662582 6.93831448 119.36328125 10.61523438 C118.6967188 13.64902796 117.51041823 14.83000856 114.9453125 16.51757812 C109.22555596 17.89734537 103.39010362 17.67260719 97.54321289 17.67871094 C96.40265945 17.68367584 95.26210602 17.68864075 94.08699036 17.6937561 C90.32231031 17.70833514 86.55767236 17.71517161 82.79296875 17.72070312 C80.1727244 17.72645678 77.55248005 17.73221448 74.93223572 17.73797607 C70.14311547 17.74753278 65.35400427 17.75343901 60.56487566 17.75647283 C53.52914836 17.7609554 46.49361514 17.77852121 39.45794684 17.80747342 C33.34971948 17.83173166 27.24157204 17.83941879 21.13329887 17.84114838 C18.54057189 17.84417419 15.94784571 17.85220025 13.35515022 17.86533356 C9.72888596 17.88239576 6.1030948 17.88051337 2.47680664 17.87402344 C0.87361572 17.88784561 0.87361572 17.88784561 -0.76196289 17.90194702 C-6.62001261 17.86911984 -10.91054238 17.41879874 -16.0546875 14.51757812 C-17.62169192 11.38356928 -17.90633311 7.88602717 -17.0546875 4.51757812 C-12.43263551 -0.9298856 -6.58380656 -0.04626029 0 0 Z " fill="#000000" transform="translate(77.0546875,194.482421875)"/>
<path d="M0 0 C1.22164856 -0.00700928 2.44329712 -0.01401855 3.70196533 -0.02124023 C7.04522287 -0.03581466 10.38748836 -0.03241962 13.73069 -0.01972389 C17.23307099 -0.00958021 20.73541027 -0.01899335 24.23779297 -0.02526855 C30.11889231 -0.03254102 35.99979058 -0.02296796 41.88085938 -0.00390625 C48.67532147 0.01786196 55.46930343 0.01081029 62.26375389 -0.01121187 C68.10256745 -0.02937747 73.94123666 -0.0319186 79.78006935 -0.0214572 C83.26506035 -0.01522855 86.74982583 -0.01436904 90.23480225 -0.02760315 C94.12026562 -0.04132807 98.00519335 -0.02229288 101.890625 0 C103.04298645 -0.00809692 104.1953479 -0.01619385 105.38262939 -0.02453613 C113.1714697 0.05835694 113.1714697 0.05835694 117.15942383 2.42492676 C119.08852223 4.68538704 119.60517156 5.58535237 119.5078125 8.51757812 C119.50910156 9.17757812 119.51039063 9.83757812 119.51171875 10.51757812 C118.69267495 13.40965004 117.24067629 14.61193483 114.9453125 16.51757812 C112.465271 17.02094269 112.465271 17.02094269 109.63183594 17.0255127 C108.5551062 17.03679199 107.47837646 17.04807129 106.36901855 17.05969238 C104.60467468 17.047547 104.60467468 17.047547 102.8046875 17.03515625 C100.94076355 17.04567017 100.94076355 17.04567017 99.03918457 17.05639648 C95.63396064 17.07098685 92.22970868 17.0675656 88.82453918 17.05488014 C85.26029152 17.04474929 81.69608524 17.05414604 78.13183594 17.0604248 C72.14640856 17.067701 66.16117864 17.0581144 60.17578125 17.0390625 C53.25692292 17.01729359 46.33853608 17.024345 39.41968918 17.04636812 C33.47815288 17.06452307 27.53675848 17.06708005 21.5952034 17.05661345 C18.04707359 17.05037895 14.49916536 17.04954141 10.9510498 17.0627594 C6.99582609 17.07646491 3.04113002 17.05746647 -0.9140625 17.03515625 C-2.09029175 17.04325317 -3.266521 17.0513501 -4.47839355 17.05969238 C-6.09348816 17.04277344 -6.09348816 17.04277344 -7.74121094 17.0255127 C-8.67624451 17.02400459 -9.61127808 17.02249649 -10.574646 17.02094269 C-13.80345429 16.36560379 -15.00383922 15.03793633 -17.0546875 12.51757812 C-17.62109375 10.51757812 -17.62109375 10.51757812 -17.6171875 8.51757812 C-17.63910156 7.85757813 -17.66101562 7.19757813 -17.68359375 6.51757812 C-15.22923961 -1.28757294 -6.56903701 -0.04615652 0 0 Z " fill="#000000" transform="translate(77.0546875,164.482421875)"/>
<path d="M0 0 C0.33 0 0.66 0 1 0 C1 63.36 1 126.72 1 192 C0.67 192 0.34 192 0 192 C0 128.64 0 65.28 0 0 Z " fill="#000000" transform="translate(208,32)"/>
<path d="M0 0 C0.33 0 0.66 0 1 0 C1 63.36 1 126.72 1 192 C0.67 192 0.34 192 0 192 C0 128.64 0 65.28 0 0 Z " fill="#000000" transform="translate(47,32)"/>
<path d="M0 0 C49.5 0 99 0 150 0 C150 0.33 150 0.66 150 1 C100.5 1 51 1 0 1 C0 0.67 0 0.34 0 0 Z " fill="#000000" transform="translate(53,5)"/>
<path d="M0 0 C49.17 0 98.34 0 149 0 C149 0.33 149 0.66 149 1 C99.83 1 50.66 1 0 1 C0 0.67 0 0.34 0 0 Z " fill="#000000" transform="translate(53,250)"/>
<path d="M0 0 C46.86 0 93.72 0 142 0 C142 0.33 142 0.66 142 1 C95.14 1 48.28 1 0 1 C0 0.67 0 0.34 0 0 Z " fill="#000000" transform="translate(57,231)"/>
<path d="M0 0 C46.86 0 93.72 0 142 0 C142 0.33 142 0.66 142 1 C95.14 1 48.28 1 0 1 C0 0.67 0 0.34 0 0 Z " fill="#000000" transform="translate(57,24)"/>
<path d="M0 0 C42.24 0 84.48 0 128 0 C128 0.33 128 0.66 128 1 C85.76 1 43.52 1 0 1 C0 0.67 0 0.34 0 0 Z " fill="#000000" transform="translate(64,182)"/>
<path d="M0 0 C41.58 0 83.16 0 126 0 C126 0.33 126 0.66 126 1 C84.42 1 42.84 1 0 1 C0 0.67 0 0.34 0 0 Z " fill="#000000" transform="translate(65,163)"/>
<path d="M0 0 C40.92 0 81.84 0 124 0 C124 0.33 124 0.66 124 1 C83.08 1 42.16 1 0 1 C0 0.67 0 0.34 0 0 Z " fill="#000000" transform="translate(66,193)"/>
<path d="M0 0 C30.03 0 60.06 0 91 0 C91 0.33 91 0.66 91 1 C60.97 1 30.94 1 0 1 C0 0.67 0 0.34 0 0 Z " fill="#000000" transform="translate(81,145)"/>
<path d="M0 0 C0.33 0 0.66 0 1 0 C1 4.29 1 8.58 1 13 C0.67 13 0.34 13 0 13 C0 8.71 0 4.42 0 0 Z " fill="#000000" transform="translate(158,68)"/>
<path d="M0 0 C0.33 0 0.66 0 1 0 C1 4.29 1 8.58 1 13 C0.67 13 0.34 13 0 13 C0 8.71 0 4.42 0 0 Z " fill="#000000" transform="translate(94,68)"/>
<path d="M0 0 C3.63 0 7.26 0 11 0 C11 0.33 11 0.66 11 1 C7.37 1 3.74 1 0 1 C0 0.67 0 0.34 0 0 Z " fill="#000000" transform="translate(121,42)"/>
<path d="M0 0 C2.97 0 5.94 0 9 0 C9 0.33 9 0.66 9 1 C6.03 1 3.06 1 0 1 C0 0.67 0 0.34 0 0 Z " fill="#000000" transform="translate(122,107)"/>
<path d="M0 0 C0.33 0 0.66 0 1 0 C1 2.31 1 4.62 1 7 C0.67 7 0.34 7 0 7 C0 4.69 0 2.38 0 0 Z " fill="#000000" transform="translate(72,131)"/>
<path d="M0 0 C2.31 0 4.62 0 7 0 C7 0.33 7 0.66 7 1 C4.69 1 2.38 1 0 1 C0 0.67 0 0.34 0 0 Z " fill="#000000" transform="translate(123,62)"/>
<path d="M0 0 C0.33 0 0.66 0 1 0 C1 1.98 1 3.96 1 6 C0.67 6 0.34 6 0 6 C0 4.02 0 2.04 0 0 Z " fill="#000000" transform="translate(139,72)"/>
<path d="M0 0 C0.33 0 0.66 0 1 0 C1 1.98 1 3.96 1 6 C0.67 6 0.34 6 0 6 C0 4.02 0 2.04 0 0 Z " fill="#000000" transform="translate(113,72)"/>
<path d="M0 0 C0.99 0.99 1.98 1.98 3 3 C2.01 2.67 1.02 2.34 0 2 C0 1.34 0 0.68 0 0 Z " fill="#000000" transform="translate(116,83)"/>
<path d="M0 0 C0 0.99 0 1.98 0 3 C-0.66 2.67 -1.32 2.34 -2 2 C-1.34 1.34 -0.68 0.68 0 0 Z " fill="#000000" transform="translate(136,83)"/>
<path d="M0 0 C1 4 1 4 1 4 Z " fill="#000000" transform="translate(227,223)"/>
<path d="M0 0 C1 4 1 4 1 4 Z " fill="#000000" transform="translate(28,223)"/>
<path d="M0 0 C1 4 1 4 1 4 Z " fill="#000000" transform="translate(227,29)"/>
<path d="M0 0 C1 4 1 4 1 4 Z " fill="#000000" transform="translate(28,29)"/>
<path d="" fill="#000000" transform="translate(0,0)"/>
<path d="" fill="#000000" transform="translate(0,0)"/>
<path d="" fill="#000000" transform="translate(0,0)"/>
<path d="" fill="#000000" transform="translate(0,0)"/>
<path d="" fill="#000000" transform="translate(0,0)"/>
<path d="" fill="#000000" transform="translate(0,0)"/>
<path d="" fill="#000000" transform="translate(0,0)"/>
<path d="" fill="#000000" transform="translate(0,0)"/>
<path d="M0 0 C3 1 3 1 3 1 Z " fill="#000000" transform="translate(137,109)"/>
<path d="M0 0 C3 1 3 1 3 1 Z " fill="#000000" transform="translate(113,109)"/>
<path d="M0 0 C3 1 3 1 3 1 Z " fill="#000000" transform="translate(133,108)"/>
<path d="M0 0 C3 1 3 1 3 1 Z " fill="#000000" transform="translate(117,108)"/>
<path d="M0 0 C3 1 3 1 3 1 Z " fill="#000000" transform="translate(125,88)"/>
<path d="" fill="#000000" transform="translate(0,0)"/>
<path d="M0 0 C2 1 2 1 2 1 Z " fill="#000000" transform="translate(204,249)"/>
<path d="M0 0 C2 1 2 1 2 1 Z " fill="#000000" transform="translate(50,249)"/>
<path d="M0 0 C2 1 2 1 2 1 Z " fill="#000000" transform="translate(207,248)"/>
<path d="M0 0 C2 1 2 1 2 1 Z " fill="#000000" transform="translate(47,248)"/>
<path d="M0 0 C2 1 2 1 2 1 Z " fill="#000000" transform="translate(209,247)"/>
<path d="M0 0 C2 1 2 1 2 1 Z " fill="#000000" transform="translate(45,247)"/>
<path d="M0 0 C2 1 2 1 2 1 Z " fill="#000000" transform="translate(211,246)"/>
<path d="M0 0 C2 1 2 1 2 1 Z " fill="#000000" transform="translate(43,246)"/>
<path d="M0 0 C2 1 2 1 2 1 Z " fill="#000000" transform="translate(214,244)"/>
<path d="M0 0 C2 1 2 1 2 1 Z " fill="#000000" transform="translate(40,244)"/>
<path d="" fill="#000000" transform="translate(0,0)"/>
<path d="" fill="#000000" transform="translate(0,0)"/>
<path d="M0 0 C2 1 2 1 2 1 Z " fill="#000000" transform="translate(201,230)"/>
<path d="M0 0 C2 1 2 1 2 1 Z " fill="#000000" transform="translate(53,230)"/>
<path d="" fill="#000000" transform="translate(0,0)"/>
<path d="M0 0 C2 1 2 1 2 1 Z " fill="#000000" transform="translate(203,229)"/>
<path d="M0 0 C2 1 2 1 2 1 Z " fill="#000000" transform="translate(51,229)"/>
<path d="" fill="#000000" transform="translate(0,0)"/>
<path d="" fill="#000000" transform="translate(0,0)"/>
<path d="" fill="#000000" transform="translate(0,0)"/>
<path d="" fill="#000000" transform="translate(0,0)"/>
<path d="" fill="#000000" transform="translate(0,0)"/>
<path d="M0 0 C2 1 2 1 2 1 Z " fill="#000000" transform="translate(190,212)"/>
<path d="M0 0 C2 1 2 1 2 1 Z " fill="#000000" transform="translate(64,212)"/>
<path d="M0 0 C2 1 2 1 2 1 Z " fill="#000000" transform="translate(192,211)"/>
<path d="M0 0 C2 1 2 1 2 1 Z " fill="#000000" transform="translate(62,211)"/>
<path d="" fill="#000000" transform="translate(0,0)"/>
<path d="" fill="#000000" transform="translate(0,0)"/>
<path d="" fill="#000000" transform="translate(0,0)"/>
<path d="" fill="#000000" transform="translate(0,0)"/>
<path d="M0 0 C2 1 2 1 2 1 Z " fill="#000000" transform="translate(191,194)"/>
<path d="M0 0 C2 1 2 1 2 1 Z " fill="#000000" transform="translate(63,194)"/>
<path d="M0 0 C2 1 2 1 2 1 Z " fill="#000000" transform="translate(192,181)"/>
<path d="M0 0 C2 1 2 1 2 1 Z " fill="#000000" transform="translate(62,181)"/>
<path d="" fill="#000000" transform="translate(0,0)"/>
<path d="" fill="#000000" transform="translate(0,0)"/>
<path d="" fill="#000000" transform="translate(0,0)"/>
<path d="" fill="#000000" transform="translate(0,0)"/>
<path d="M0 0 C2 1 2 1 2 1 Z " fill="#000000" transform="translate(191,164)"/>
<path d="M0 0 C2 1 2 1 2 1 Z " fill="#000000" transform="translate(63,164)"/>
<path d="M0 0 C2 1 2 1 2 1 Z " fill="#000000" transform="translate(173,144)"/>
<path d="M0 0 C2 1 2 1 2 1 Z " fill="#000000" transform="translate(78,144)"/>
<path d="" fill="#000000" transform="translate(0,0)"/>
<path d="" fill="#000000" transform="translate(0,0)"/>
<path d="" fill="#000000" transform="translate(0,0)"/>
<path d="" fill="#000000" transform="translate(0,0)"/>
<path d="" fill="#000000" transform="translate(0,0)"/>
<path d="" fill="#000000" transform="translate(0,0)"/>
<path d="" fill="#000000" transform="translate(0,0)"/>
<path d="" fill="#000000" transform="translate(0,0)"/>
<path d="" fill="#000000" transform="translate(0,0)"/>
<path d="" fill="#000000" transform="translate(0,0)"/>
<path d="" fill="#000000" transform="translate(0,0)"/>
<path d="" fill="#000000" transform="translate(0,0)"/>
<path d="M0 0 C2 1 2 1 2 1 Z " fill="#000000" transform="translate(147,114)"/>
<path d="M0 0 C2 1 2 1 2 1 Z " fill="#000000" transform="translate(104,114)"/>
<path d="" fill="#000000" transform="translate(0,0)"/>
<path d="" fill="#000000" transform="translate(0,0)"/>
<path d="M0 0 C2 1 2 1 2 1 Z " fill="#000000" transform="translate(144,112)"/>
<path d="M0 0 C2 1 2 1 2 1 Z " fill="#000000" transform="translate(107,112)"/>
<path d="M0 0 C2 1 2 1 2 1 Z " fill="#000000" transform="translate(142,111)"/>
<path d="M0 0 C2 1 2 1 2 1 Z " fill="#000000" transform="translate(109,111)"/>
<path d="M0 0 C2 1 2 1 2 1 Z " fill="#000000" transform="translate(140,110)"/>
<path d="M0 0 C2 1 2 1 2 1 Z " fill="#000000" transform="translate(111,110)"/>
<path d="" fill="#000000" transform="translate(0,0)"/>
<path d="M0 0 C2 1 2 1 2 1 Z " fill="#000000" transform="translate(91,100)"/>
<path d="M0 0 C2 1 2 1 2 1 Z " fill="#000000" transform="translate(158,98)"/>
<path d="M0 0 C2 1 2 1 2 1 Z " fill="#000000" transform="translate(95,97)"/>
<path d="M0 0 C2 1 2 1 2 1 Z " fill="#000000" transform="translate(155,96)"/>
<path d="M0 0 C2 1 2 1 2 1 Z " fill="#000000" transform="translate(98,95)"/>
<path d="" fill="#000000" transform="translate(0,0)"/>
<path d="" fill="#000000" transform="translate(0,0)"/>
<path d="" fill="#000000" transform="translate(0,0)"/>
<path d="" fill="#000000" transform="translate(0,0)"/>
<path d="M0 0 C2 1 2 1 2 1 Z " fill="#000000" transform="translate(130,87)"/>
<path d="M0 0 C2 1 2 1 2 1 Z " fill="#000000" transform="translate(121,87)"/>
<path d="" fill="#000000" transform="translate(0,0)"/>
<path d="" fill="#000000" transform="translate(0,0)"/>
<path d="" fill="#000000" transform="translate(0,0)"/>
<path d="" fill="#000000" transform="translate(0,0)"/>
<path d="" fill="#000000" transform="translate(0,0)"/>
<path d="" fill="#000000" transform="translate(0,0)"/>
<path d="" fill="#000000" transform="translate(0,0)"/>
<path d="" fill="#000000" transform="translate(0,0)"/>
<path d="" fill="#000000" transform="translate(0,0)"/>
<path d="" fill="#000000" transform="translate(0,0)"/>
<path d="" fill="#000000" transform="translate(0,0)"/>
<path d="M0 0 C2 1 2 1 2 1 Z " fill="#000000" transform="translate(133,64)"/>
<path d="M0 0 C2 1 2 1 2 1 Z " fill="#000000" transform="translate(118,64)"/>
<path d="" fill="#000000" transform="translate(0,0)"/>
<path d="M0 0 C2 1 2 1 2 1 Z " fill="#000000" transform="translate(131,63)"/>
<path d="M0 0 C2 1 2 1 2 1 Z " fill="#000000" transform="translate(120,63)"/>
<path d="" fill="#000000" transform="translate(0,0)"/>
<path d="" fill="#000000" transform="translate(0,0)"/>
<path d="" fill="#000000" transform="translate(0,0)"/>
<path d="" fill="#000000" transform="translate(0,0)"/>
<path d="" fill="#000000" transform="translate(0,0)"/>
<path d="" fill="#000000" transform="translate(0,0)"/>
<path d="" fill="#000000" transform="translate(0,0)"/>
<path d="M0 0 C2 1 2 1 2 1 Z " fill="#000000" transform="translate(144,48)"/>
<path d="M0 0 C2 1 2 1 2 1 Z " fill="#000000" transform="translate(107,48)"/>
<path d="M0 0 C2 1 2 1 2 1 Z " fill="#000000" transform="translate(141,46)"/>
<path d="M0 0 C2 1 2 1 2 1 Z " fill="#000000" transform="translate(110,46)"/>
<path d="M0 0 C2 1 2 1 2 1 Z " fill="#000000" transform="translate(139,45)"/>
<path d="M0 0 C2 1 2 1 2 1 Z " fill="#000000" transform="translate(112,45)"/>
<path d="M0 0 C2 1 2 1 2 1 Z " fill="#000000" transform="translate(137,44)"/>
<path d="M0 0 C2 1 2 1 2 1 Z " fill="#000000" transform="translate(114,44)"/>
<path d="M0 0 C2 1 2 1 2 1 Z " fill="#000000" transform="translate(134,43)"/>
<path d="M0 0 C2 1 2 1 2 1 Z " fill="#000000" transform="translate(117,43)"/>
<path d="" fill="#000000" transform="translate(0,0)"/>
<path d="" fill="#000000" transform="translate(0,0)"/>
<path d="" fill="#000000" transform="translate(0,0)"/>
<path d="" fill="#000000" transform="translate(0,0)"/>
<path d="" fill="#000000" transform="translate(0,0)"/>
<path d="" fill="#000000" transform="translate(0,0)"/>
<path d="M0 0 C2 1 2 1 2 1 Z " fill="#000000" transform="translate(203,26)"/>
<path d="M0 0 C2 1 2 1 2 1 Z " fill="#000000" transform="translate(51,26)"/>
<path d="M0 0 C2 1 2 1 2 1 Z " fill="#000000" transform="translate(201,25)"/>
<path d="M0 0 C2 1 2 1 2 1 Z " fill="#000000" transform="translate(53,25)"/>
<path d="" fill="#000000" transform="translate(0,0)"/>
<path d="" fill="#000000" transform="translate(0,0)"/>
<path d="" fill="#000000" transform="translate(0,0)"/>
<path d="" fill="#000000" transform="translate(0,0)"/>
<path d="M0 0 C2 1 2 1 2 1 Z " fill="#000000" transform="translate(214,11)"/>
<path d="M0 0 C2 1 2 1 2 1 Z " fill="#000000" transform="translate(40,11)"/>
<path d="M0 0 C2 1 2 1 2 1 Z " fill="#000000" transform="translate(211,9)"/>
<path d="M0 0 C2 1 2 1 2 1 Z " fill="#000000" transform="translate(43,9)"/>
<path d="M0 0 C2 1 2 1 2 1 Z " fill="#000000" transform="translate(209,8)"/>
<path d="M0 0 C2 1 2 1 2 1 Z " fill="#000000" transform="translate(45,8)"/>
<path d="M0 0 C2 1 2 1 2 1 Z " fill="#000000" transform="translate(207,7)"/>
<path d="M0 0 C2 1 2 1 2 1 Z " fill="#000000" transform="translate(47,7)"/>
<path d="M0 0 C2 1 2 1 2 1 Z " fill="#000000" transform="translate(204,6)"/>
<path d="M0 0 C2 1 2 1 2 1 Z " fill="#000000" transform="translate(50,6)"/>
<path d="" fill="#000000" transform="translate(0,0)"/>
<path d="" fill="#000000" transform="translate(0,0)"/>
<path d="" fill="#000000" transform="translate(0,0)"/>
<path d="" fill="#000000" transform="translate(0,0)"/>
<path d="" fill="#000000" transform="translate(0,0)"/>
<path d="" fill="#000000" transform="translate(0,0)"/>
<path d="" fill="#000000" transform="translate(0,0)"/>
<path d="" fill="#000000" transform="translate(0,0)"/>
<path d="" fill="#000000" transform="translate(0,0)"/>
<path d="" fill="#000000" transform="translate(0,0)"/>
<path d="" fill="#000000" transform="translate(0,0)"/>
<path d="" fill="#000000" transform="translate(0,0)"/>
<path d="" fill="#000000" transform="translate(0,0)"/>
<path d="" fill="#000000" transform="translate(0,0)"/>
<path d="" fill="#000000" transform="translate(0,0)"/>
<path d="" fill="#000000" transform="translate(0,0)"/>
<path d="" fill="#000000" transform="translate(0,0)"/>
<path d="" fill="#000000" transform="translate(0,0)"/>
<path d="" fill="#000000" transform="translate(0,0)"/>
<path d="" fill="#000000" transform="translate(0,0)"/>
<path d="" fill="#000000" transform="translate(0,0)"/>
<path d="" fill="#000000" transform="translate(0,0)"/>
<path d="" fill="#000000" transform="translate(0,0)"/>
<path d="" fill="#000000" transform="translate(0,0)"/>
<path d="" fill="#000000" transform="translate(0,0)"/>
<path d="" fill="#000000" transform="translate(0,0)"/>
<path d="" fill="#000000" transform="translate(0,0)"/>
<path d="" fill="#000000" transform="translate(0,0)"/>
<path d="" fill="#000000" transform="translate(0,0)"/>
<path d="" fill="#000000" transform="translate(0,0)"/>
<path d="" fill="#000000" transform="translate(0,0)"/>
<path d="" fill="#000000" transform="translate(0,0)"/>
<path d="" fill="#000000" transform="translate(0,0)"/>
<path d="" fill="#000000" transform="translate(0,0)"/>
<path d="" fill="#000000" transform="translate(0,0)"/>
<path d="" fill="#000000" transform="translate(0,0)"/>
<path d="" fill="#000000" transform="translate(0,0)"/>
<path d="" fill="#000000" transform="translate(0,0)"/>
<path d="" fill="#000000" transform="translate(0,0)"/>
<path d="" fill="#000000" transform="translate(0,0)"/>
<path d="" fill="#000000" transform="translate(0,0)"/>
<path d="" fill="#000000" transform="translate(0,0)"/>
<path d="" fill="#000000" transform="translate(0,0)"/>
<path d="" fill="#000000" transform="translate(0,0)"/>
<path d="" fill="#000000" transform="translate(0,0)"/>
<path d="" fill="#000000" transform="translate(0,0)"/>
<path d="" fill="#000000" transform="translate(0,0)"/>
<path d="" fill="#000000" transform="translate(0,0)"/>
<path d="" fill="#000000" transform="translate(0,0)"/>
<path d="" fill="#000000" transform="translate(0,0)"/>
<path d="" fill="#000000" transform="translate(0,0)"/>
<path d="" fill="#000000" transform="translate(0,0)"/>
<path d="" fill="#000000" transform="translate(0,0)"/>
<path d="" fill="#000000" transform="translate(0,0)"/>
<path d="" fill="#000000" transform="translate(0,0)"/>
<path d="" fill="#000000" transform="translate(0,0)"/>
<path d="" fill="#000000" transform="translate(0,0)"/>
<path d="" fill="#000000" transform="translate(0,0)"/>
<path d="" fill="#000000" transform="translate(0,0)"/>
<path d="" fill="#000000" transform="translate(0,0)"/>
<path d="" fill="#000000" transform="translate(0,0)"/>
<path d="" fill="#000000" transform="translate(0,0)"/>
<path d="" fill="#000000" transform="translate(0,0)"/>
<path d="" fill="#000000" transform="translate(0,0)"/>
<path d="" fill="#000000" transform="translate(0,0)"/>
<path d="" fill="#000000" transform="translate(0,0)"/>
<path d="" fill="#000000" transform="translate(0,0)"/>
<path d="" fill="#000000" transform="translate(0,0)"/>
<path d="" fill="#000000" transform="translate(0,0)"/>
<path d="" fill="#000000" transform="translate(0,0)"/>
<path d="" fill="#000000" transform="translate(0,0)"/>
<path d="" fill="#000000" transform="translate(0,0)"/>
<path d="" fill="#000000" transform="translate(0,0)"/>
<path d="" fill="#000000" transform="translate(0,0)"/>
<path d="" fill="#000000" transform="translate(0,0)"/>
<path d="" fill="#000000" transform="translate(0,0)"/>
<path d="" fill="#000000" transform="translate(0,0)"/>
<path d="" fill="#000000" transform="translate(0,0)"/>
<path d="" fill="#000000" transform="translate(0,0)"/>
<path d="" fill="#000000" transform="translate(0,0)"/>
<path d="" fill="#000000" transform="translate(0,0)"/>
<path d="" fill="#000000" transform="translate(0,0)"/>
<path d="" fill="#000000" transform="translate(0,0)"/>
<path d="" fill="#000000" transform="translate(0,0)"/>
<path d="" fill="#000000" transform="translate(0,0)"/>
<path d="" fill="#000000" transform="translate(0,0)"/>
<path d="" fill="#000000" transform="translate(0,0)"/>
<path d="" fill="#000000" transform="translate(0,0)"/>
<path d="" fill="#000000" transform="translate(0,0)"/>
<path d="" fill="#000000" transform="translate(0,0)"/>
<path d="" fill="#000000" transform="translate(0,0)"/>
<path d="" fill="#000000" transform="translate(0,0)"/>
<path d="" fill="#000000" transform="translate(0,0)"/>
<path d="" fill="#000000" transform="translate(0,0)"/>
<path d="" fill="#000000" transform="translate(0,0)"/>
<path d="" fill="#000000" transform="translate(0,0)"/>
<path d="" fill="#000000" transform="translate(0,0)"/>
<path d="" fill="#000000" transform="translate(0,0)"/>
<path d="" fill="#000000" transform="translate(0,0)"/>
<path d="" fill="#000000" transform="translate(0,0)"/>
<path d="" fill="#000000" transform="translate(0,0)"/>
<path d="" fill="#000000" transform="translate(0,0)"/>
<path d="" fill="#000000" transform="translate(0,0)"/>
<path d="" fill="#000000" transform="translate(0,0)"/>
<path d="" fill="#000000" transform="translate(0,0)"/>
<path d="" fill="#000000" transform="translate(0,0)"/>
<path d="" fill="#000000" transform="translate(0,0)"/>
<path d="" fill="#000000" transform="translate(0,0)"/>
<path d="" fill="#000000" transform="translate(0,0)"/>
<path d="" fill="#000000" transform="translate(0,0)"/>
<path d="" fill="#000000" transform="translate(0,0)"/>
<path d="" fill="#000000" transform="translate(0,0)"/>
<path d="" fill="#000000" transform="translate(0,0)"/>
<path d="" fill="#000000" transform="translate(0,0)"/>
<path d="" fill="#000000" transform="translate(0,0)"/>
<path d="" fill="#000000" transform="translate(0,0)"/>
<path d="" fill="#000000" transform="translate(0,0)"/>
<path d="" fill="#000000" transform="translate(0,0)"/>
<path d="" fill="#000000" transform="translate(0,0)"/>
<path d="" fill="#000000" transform="translate(0,0)"/>
<path d="" fill="#000000" transform="translate(0,0)"/>
<path d="" fill="#000000" transform="translate(0,0)"/>
<path d="" fill="#000000" transform="translate(0,0)"/>
<path d="" fill="#000000" transform="translate(0,0)"/>
<path d="" fill="#000000" transform="translate(0,0)"/>
<path d="" fill="#000000" transform="translate(0,0)"/>
<path d="" fill="#000000" transform="translate(0,0)"/>
<path d="" fill="#000000" transform="translate(0,0)"/>
<path d="" fill="#000000" transform="translate(0,0)"/>
<path d="" fill="#000000" transform="translate(0,0)"/>
<path d="" fill="#000000" transform="translate(0,0)"/>
<path d="" fill="#000000" transform="translate(0,0)"/>
<path d="" fill="#000000" transform="translate(0,0)"/>
<path d="" fill="#000000" transform="translate(0,0)"/>
<path d="" fill="#000000" transform="translate(0,0)"/>
<path d="" fill="#000000" transform="translate(0,0)"/>
<path d="" fill="#000000" transform="translate(0,0)"/>
<path d="" fill="#000000" transform="translate(0,0)"/>
<path d="" fill="#000000" transform="translate(0,0)"/>
<path d="" fill="#000000" transform="translate(0,0)"/>
<path d="" fill="#000000" transform="translate(0,0)"/>
<path d="" fill="#000000" transform="translate(0,0)"/>
<path d="" fill="#000000" transform="translate(0,0)"/>
<path d="" fill="#000000" transform="translate(0,0)"/>
<path d="" fill="#000000" transform="translate(0,0)"/>
<path d="" fill="#000000" transform="translate(0,0)"/>
<path d="" fill="#000000" transform="translate(0,0)"/>
</svg>
