<?xml version="1.0" encoding="UTF-8"?>
<svg version="1.1" xmlns="http://www.w3.org/2000/svg" width="320" height="241">
<path d="M0 0 C8.36184874 6.77231391 14.09703661 14.61439821 17 25 C18.29529456 37.38002686 16.81588667 46.42066175 9.0546875 56.53515625 C1.24801 65.62374205 -8.06212551 73.83130554 -17.4140625 81.3046875 C-21.49737915 85.6696122 -22.47925085 90.60004542 -23.1875 96.375 C-23.455625 98.56125 -23.72375 100.7475 -24 103 C-32.91 103 -41.82 103 -51 103 C-51.41756551 87.96764146 -50.45538423 76.71608169 -40 65 C-34.33361252 59.30993681 -28.30642996 54.21768181 -22 49.25 C-16.53271986 44.822606 -13.9371398 41.43617926 -12.0625 34.5625 C-11.95983235 28.71044395 -13.61143702 24.68879281 -17.3125 20.1875 C-24.63506936 14.22726913 -31.83834494 13.30015135 -41 14 C-43.9003499 14.63948687 -46.37196254 15.62739445 -49 17 C-49.61746094 17.31710938 -50.23492187 17.63421875 -50.87109375 17.9609375 C-58.13762802 22.36773893 -60.51170014 30.26487781 -63 38 C-72.44363607 37.45462284 -81.65438032 36.46291615 -91 35 C-89.72252699 22.57767629 -85.38292958 11.5403808 -76 3 C-73.12021551 0.76478821 -70.14231434 -1.15643554 -67 -3 C-66.39800781 -3.38027344 -65.79601562 -3.76054688 -65.17578125 -4.15234375 C-46.06632795 -15.13717049 -17.94649582 -11.67946553 0 0 Z " fill="#2A2928" transform="translate(201,54)"/>
<path d="M0 0 C9.9 0 19.8 0 30 0 C30 9.9 30 19.8 30 30 C20.1 30 10.2 30 0 30 C0 20.1 0 10.2 0 0 Z " fill="#2B2A28" transform="translate(150,166)"/>
</svg>
